<?xml version="1.0" encoding="UTF-8" standalone="no"?>
<!DOCTYPE svg PUBLIC "-//W3C//DTD SVG 1.1//EN"
 "http://www.w3.org/Graphics/SVG/1.1/DTD/svg11.dtd">
<!-- Generated by graphviz version 2.38.0 (20140413.2041)
 -->
<!-- Title: %3 Pages: 1 -->
<svg width="655pt" height="368pt"
 viewBox="0.00 0.00 655.00 368.00" xmlns="http://www.w3.org/2000/svg" xmlns:xlink="http://www.w3.org/1999/xlink">
<g id="graph0" class="graph" transform="scale(1 1) rotate(0) translate(4 364)">
<title>%3</title>
<polygon fill="white" stroke="none" points="-4,4 -4,-364 651,-364 651,4 -4,4"/>
<text text-anchor="middle" x="323.5" y="-344.8" font-family="Times,serif" font-size="14.00">Single Elimination Tournament</text>
<!-- 30906880 -->
<g id="node1" class="node"><title>30906880</title>
<polygon fill="#fff7fb" stroke="black" points="108,-266 10,-266 10,-213 108,-213 108,-266"/>
<text text-anchor="middle" x="59" y="-250.8" font-family="Times,serif" font-size="14.00">Brighton Early</text>
<text text-anchor="middle" x="59" y="-235.8" font-family="Times,serif" font-size="14.00">vs.</text>
<text text-anchor="middle" x="59" y="-220.8" font-family="Times,serif" font-size="14.00">Rob Banks</text>
</g>
<!-- 30906700 -->
<g id="node2" class="node"><title>30906700</title>
<polygon fill="#ece7f2" stroke="black" points="272,-266 154,-266 154,-213 272,-213 272,-266"/>
<text text-anchor="middle" x="213" y="-250.8" font-family="Times,serif" font-size="14.00">Brighton Early</text>
<text text-anchor="middle" x="213" y="-235.8" font-family="Times,serif" font-size="14.00">vs.</text>
<text text-anchor="middle" x="213" y="-220.8" font-family="Times,serif" font-size="14.00">Howdy U. Wannit</text>
</g>
<!-- 30906880&#45;&gt;30906700 -->
<g id="edge1" class="edge"><title>30906880&#45;&gt;30906700</title>
<path fill="none" stroke="black" stroke-width="2" d="M108.094,-239.5C122.619,-239.5 138.723,-239.5 153.83,-239.5"/>
</g>
<!-- 30906660 -->
<g id="node11" class="node"><title>30906660</title>
<polygon fill="#d0d1e6" stroke="black" points="413.5,-195 315.5,-195 315.5,-142 413.5,-142 413.5,-195"/>
<text text-anchor="middle" x="364.5" y="-179.8" font-family="Times,serif" font-size="14.00">Brighton Early</text>
<text text-anchor="middle" x="364.5" y="-164.8" font-family="Times,serif" font-size="14.00">vs.</text>
<text text-anchor="middle" x="364.5" y="-149.8" font-family="Times,serif" font-size="14.00">Terry Bull</text>
</g>
<!-- 30906700&#45;&gt;30906660 -->
<g id="edge9" class="edge"><title>30906700&#45;&gt;30906660</title>
<path fill="none" stroke="black" stroke-width="2" d="M270.094,-212.86C285.007,-205.777 300.98,-198.192 315.423,-191.333"/>
</g>
<!-- 30906860 -->
<g id="node3" class="node"><title>30906860</title>
<polygon fill="#fff7fb" stroke="black" points="103.5,-195 14.5,-195 14.5,-142 103.5,-142 103.5,-195"/>
<text text-anchor="middle" x="59" y="-179.8" font-family="Times,serif" font-size="14.00">Chris Mass</text>
<text text-anchor="middle" x="59" y="-164.8" font-family="Times,serif" font-size="14.00">vs.</text>
<text text-anchor="middle" x="59" y="-149.8" font-family="Times,serif" font-size="14.00">Lee Mealone</text>
</g>
<!-- 30906740 -->
<g id="node4" class="node"><title>30906740</title>
<polygon fill="#ece7f2" stroke="black" points="257.5,-195 168.5,-195 168.5,-142 257.5,-142 257.5,-195"/>
<text text-anchor="middle" x="213" y="-179.8" font-family="Times,serif" font-size="14.00">Terry Bull</text>
<text text-anchor="middle" x="213" y="-164.8" font-family="Times,serif" font-size="14.00">vs.</text>
<text text-anchor="middle" x="213" y="-149.8" font-family="Times,serif" font-size="14.00">Lee Mealone</text>
</g>
<!-- 30906860&#45;&gt;30906740 -->
<g id="edge2" class="edge"><title>30906860&#45;&gt;30906740</title>
<path fill="none" stroke="black" stroke-width="2" d="M103.557,-168.5C123.91,-168.5 148.083,-168.5 168.437,-168.5"/>
</g>
<!-- 30906740&#45;&gt;30906660 -->
<g id="edge7" class="edge"><title>30906740&#45;&gt;30906660</title>
<path fill="none" stroke="black" stroke-width="2" d="M257.643,-168.5C275.742,-168.5 296.803,-168.5 315.35,-168.5"/>
</g>
<!-- 30906840 -->
<g id="node5" class="node"><title>30906840</title>
<polygon fill="#fff7fb" stroke="black" points="115.5,-53 2.5,-53 2.5,-0 115.5,-0 115.5,-53"/>
<text text-anchor="middle" x="59" y="-37.8" font-family="Times,serif" font-size="14.00">Ewan Whadarmy</text>
<text text-anchor="middle" x="59" y="-22.8" font-family="Times,serif" font-size="14.00">vs.</text>
<text text-anchor="middle" x="59" y="-7.8" font-family="Times,serif" font-size="14.00">Will Wynn</text>
</g>
<!-- 30906760 -->
<g id="node6" class="node"><title>30906760</title>
<polygon fill="#ece7f2" stroke="black" points="269.5,-53 156.5,-53 156.5,-0 269.5,-0 269.5,-53"/>
<text text-anchor="middle" x="213" y="-37.8" font-family="Times,serif" font-size="14.00">Yuri Sponsible</text>
<text text-anchor="middle" x="213" y="-22.8" font-family="Times,serif" font-size="14.00">vs.</text>
<text text-anchor="middle" x="213" y="-7.8" font-family="Times,serif" font-size="14.00">Ewan Whadarmy</text>
</g>
<!-- 30906840&#45;&gt;30906760 -->
<g id="edge3" class="edge"><title>30906840&#45;&gt;30906760</title>
<path fill="none" stroke="black" stroke-width="2" d="M115.736,-26.5C128.954,-26.5 143.053,-26.5 156.271,-26.5"/>
</g>
<!-- 30906640 -->
<g id="node10" class="node"><title>30906640</title>
<polygon fill="#d0d1e6" stroke="black" points="421,-124 308,-124 308,-71 421,-71 421,-124"/>
<text text-anchor="middle" x="364.5" y="-108.8" font-family="Times,serif" font-size="14.00">Willy Byte</text>
<text text-anchor="middle" x="364.5" y="-93.8" font-family="Times,serif" font-size="14.00">vs.</text>
<text text-anchor="middle" x="364.5" y="-78.8" font-family="Times,serif" font-size="14.00">Ewan Whadarmy</text>
</g>
<!-- 30906760&#45;&gt;30906640 -->
<g id="edge6" class="edge"><title>30906760&#45;&gt;30906640</title>
<path fill="none" stroke="black" stroke-width="2" d="M269.668,-52.9378C282.121,-58.8517 295.331,-65.1253 307.785,-71.0401"/>
</g>
<!-- 30906820 -->
<g id="node7" class="node"><title>30906820</title>
<polygon fill="#fff7fb" stroke="black" points="100,-124 18,-124 18,-71 100,-71 100,-124"/>
<text text-anchor="middle" x="59" y="-108.8" font-family="Times,serif" font-size="14.00">Anita Drink</text>
<text text-anchor="middle" x="59" y="-93.8" font-family="Times,serif" font-size="14.00">vs.</text>
<text text-anchor="middle" x="59" y="-78.8" font-family="Times,serif" font-size="14.00">Willy Byte</text>
</g>
<!-- 30906720 -->
<g id="node8" class="node"><title>30906720</title>
<polygon fill="#ece7f2" stroke="black" points="251.5,-124 174.5,-124 174.5,-71 251.5,-71 251.5,-124"/>
<text text-anchor="middle" x="213" y="-108.8" font-family="Times,serif" font-size="14.00">Uta Bomb</text>
<text text-anchor="middle" x="213" y="-93.8" font-family="Times,serif" font-size="14.00">vs.</text>
<text text-anchor="middle" x="213" y="-78.8" font-family="Times,serif" font-size="14.00">Willy Byte</text>
</g>
<!-- 30906820&#45;&gt;30906720 -->
<g id="edge4" class="edge"><title>30906820&#45;&gt;30906720</title>
<path fill="none" stroke="black" stroke-width="2" d="M100.334,-97.5C123.289,-97.5 151.859,-97.5 174.353,-97.5"/>
</g>
<!-- 30906720&#45;&gt;30906640 -->
<g id="edge8" class="edge"><title>30906720&#45;&gt;30906640</title>
<path fill="none" stroke="black" stroke-width="2" d="M251.725,-97.5C268.766,-97.5 289.241,-97.5 307.984,-97.5"/>
</g>
<!-- 30906800 -->
<g id="node9" class="node"><title>30906800</title>
<polygon fill="#fff7fb" stroke="black" points="118,-337 0,-337 0,-284 118,-284 118,-337"/>
<text text-anchor="middle" x="59" y="-321.8" font-family="Times,serif" font-size="14.00">Howdy U. Wannit</text>
<text text-anchor="middle" x="59" y="-306.8" font-family="Times,serif" font-size="14.00">vs.</text>
<text text-anchor="middle" x="59" y="-291.8" font-family="Times,serif" font-size="14.00">Holly Wood</text>
</g>
<!-- 30906800&#45;&gt;30906700 -->
<g id="edge5" class="edge"><title>30906800&#45;&gt;30906700</title>
<path fill="none" stroke="black" stroke-width="2" d="M117.032,-283.86C129.499,-278.037 142.694,-271.873 155.154,-266.053"/>
</g>
<!-- 30906600 -->
<g id="node12" class="node"><title>30906600</title>
<polygon fill="#a6bddb" stroke="black" points="534,-159 457,-159 457,-106 534,-106 534,-159"/>
<text text-anchor="middle" x="495.5" y="-143.8" font-family="Times,serif" font-size="14.00">Terry Bull</text>
<text text-anchor="middle" x="495.5" y="-128.8" font-family="Times,serif" font-size="14.00">vs.</text>
<text text-anchor="middle" x="495.5" y="-113.8" font-family="Times,serif" font-size="14.00">Willy Byte</text>
</g>
<!-- 30906640&#45;&gt;30906600 -->
<g id="edge11" class="edge"><title>30906640&#45;&gt;30906600</title>
<path fill="none" stroke="black" stroke-width="2" d="M421.331,-112.648C433.315,-115.9 445.706,-119.261 456.809,-122.274"/>
</g>
<!-- 30906660&#45;&gt;30906600 -->
<g id="edge10" class="edge"><title>30906660&#45;&gt;30906600</title>
<path fill="none" stroke="black" stroke-width="2" d="M413.535,-155.095C427.862,-151.097 443.35,-146.774 456.906,-142.991"/>
</g>
<!-- winner -->
<g id="node13" class="node"><title>winner</title>
<polygon fill="#74a9cf" stroke="black" points="647,-150.5 570,-150.5 570,-114.5 647,-114.5 647,-150.5"/>
<text text-anchor="middle" x="608.5" y="-128.8" font-family="Times,serif" font-size="14.00">Willy Byte</text>
</g>
<!-- 30906600&#45;&gt;winner -->
<g id="edge12" class="edge"><title>30906600&#45;&gt;winner</title>
<path fill="none" stroke="black" stroke-width="2" d="M534.08,-132.5C545.652,-132.5 558.389,-132.5 569.959,-132.5"/>
</g>
</g>
</svg>
